<?xml version="1.0" encoding="UTF-8"?>
<svg id="Layer_1" data-name="Layer 1" xmlns="http://www.w3.org/2000/svg" version="1.1" viewBox="0 0 121.9 104.9">
  <defs>
    <style>
      .cls-1 {
        fill: #c0bebe;
      }

      .cls-1, .cls-2, .cls-3 {
        stroke-width: 0px;
      }

      .cls-2 {
        fill: #000;
      }

      .cls-3 {
        fill: #fff;
      }
    </style>
  </defs>
  <path class="cls-3" d="M44,85.5c1.1-2.7,3.7-4.6,6.6-4.8,7.9-.8,23.1-3,38.9-9.4,22.7-9.3,19.4-37.4,18.3-43.1-1.4-7.2-9.5-15.5-17.7-22.4-5-1.7-10.3-2.6-15.8-2.6h-26.6c-11.9,0-23.1,4.2-31.5,11.9C7.8,22.7,3.1,32.8,3.1,43.6v3.4c0,7.9,2.5,15.6,7.3,22.2,4.7,6.5,11.2,11.5,19,14.7.7.3,1,.9,1,1.6-.5,4.5-2.1,9.2-4.8,14,11-5.4,16.7-10.1,18.4-14.1ZM78.9,40c3,0,5.4,2.4,5.4,5.4s-2.4,5.4-5.4,5.4-5.4-2.4-5.4-5.4,2.4-5.4,5.4-5.4ZM60,40c3,0,5.4,2.4,5.4,5.4s-2.4,5.4-5.4,5.4-5.4-2.4-5.4-5.4,2.4-5.4,5.4-5.4ZM35.7,45.4c0-3,2.4-5.4,5.4-5.4s5.4,2.4,5.4,5.4-2.4,5.4-5.4,5.4-5.4-2.4-5.4-5.4Z"/>
  <path class="cls-1" d="M105.8,15c-4.5-4.1-9.8-7.3-15.6-9.3,8.3,6.8,16.3,15.2,17.7,22.4,1.1,5.6,4.4,33.8-18.3,43.1-15.8,6.4-31,8.7-38.9,9.4-2.9.3-5.5,2.1-6.6,4.8-1.7,4-7.4,8.7-18.4,14.1-.4.7-.8,1.4-1.2,2.1,4.5-.5,13.6-3,22.9-13.7.3-.3.7-.5,1.2-.5h25.7c11.9,0,23.1-4.2,31.5-11.9,8.4-7.6,13-17.8,13-28.6v-3.4c0-10.8-4.6-20.9-13-28.6Z"/>
  <path class="cls-2" d="M107.9,12.7C98.9,4.5,86.9,0,74.3,0h-26.6c-12.7,0-24.6,4.5-33.6,12.7C5,21,0,31.9,0,43.6v3.4c0,8.6,2.7,16.9,7.9,24.1,4.8,6.6,11.4,11.9,19.2,15.3-.7,4.6-2.7,9.5-5.9,14.5l-1.4,1.3c-.5.4-.6,1.1-.4,1.7.2.6.8,1,1.5,1h2.4s0,0,0,0c2.4-.1,6.2-.8,10.7-2.8,5.4-2.5,10.4-6.3,15-11.5h25c12.7,0,24.6-4.5,33.6-12.7,9-8.2,14-19.2,14-30.9v-3.4c0-11.7-5-22.6-14-30.9ZM118.7,47c0,10.8-4.6,20.9-13,28.6-8.4,7.7-19.6,11.9-31.5,11.9h-25.7c-.5,0-.9.2-1.2.5-9.3,10.7-18.4,13.1-22.9,13.7.4-.7.8-1.4,1.2-2.1,2.7-4.8,4.3-9.5,4.8-14,0-.7-.3-1.4-1-1.6-7.7-3.2-14.3-8.2-19-14.7-4.8-6.6-7.3-14.3-7.3-22.2v-3.4c0-10.8,4.6-20.9,13-28.6C24.5,7.4,35.7,3.1,47.6,3.1h26.6c5.5,0,10.9.9,15.8,2.6,5.8,2,11.1,5.1,15.6,9.3,8.4,7.6,13,17.8,13,28.6v3.4Z"/>
  <circle class="cls-2" cx="41.1" cy="45.4" r="5.4"/>
  <circle class="cls-2" cx="60" cy="45.4" r="5.4"/>
  <circle class="cls-2" cx="78.9" cy="45.4" r="5.4"/>
</svg>