<?xml version="1.0" encoding="UTF-8"?><svg id="Layer_2" xmlns="http://www.w3.org/2000/svg" viewBox="0 0 231.99 406.97"><defs><style>.cls-1{fill:#fff;}.cls-2{fill:#0a0808;}.cls-3{fill:#c0bebe;}</style></defs><g id="Layer_1-2"><path class="cls-2" d="M107.21,62.65c.93-.34,1.25-.91,1.65-1.4,6.95-8.52,14.43-16.57,21.63-24.87,7.09-8.15,14.95-15.52,23.33-22.33,8.43-6.85,17.87-11.6,28.64-13.43,4.08-.69,8.21-.91,12.3-.11,8.05,1.58,14.1,6.05,18.11,13.16,6.04,10.7,7.51,21.98,4.45,33.97-3.44,13.48-8.89,25.84-17.82,36.7-8.07,9.82-16.62,19.13-26,27.7-8.74,7.99-16.51,16.96-25.35,24.84-.22.2-.51.41-.32,1.03,9.62,2.37,18.04,6.89,23.95,15.44,5.92,8.57,7.97,17.77,5.46,28.12,2.12,1.02,4.39,2.09,6.64,3.2,8.07,3.96,13.13,10.47,15.62,18.97.55,1.87,1.22,2.79,3.23,3.07,12.67,1.77,19.99,10.01,24.95,20.99,4.16,9.22,4.67,18.97,4.15,28.88-1.01,19.34-6.73,37.32-15.89,54.25-5.96,11.02-14.57,19.88-23.85,28.13-2.03,1.81-2.17,1.78-.65,3.94,1.89,2.69,3.49,5.54,4.75,8.57,3.43,8.23,3.55,16.41-.54,24.49-2.36,4.66-5.38,8.82-9.14,12.46-2.71,2.63-5.97,4.39-9.46,5.62-18.08,6.41-36.5,11.31-55.79,12.2-2.74.13-5.48.33-8.22.55-12.35.99-24.1-2.21-35.89-5.13-19.84-4.91-37.5-13.95-52.79-27.59-6.25-5.57-10.84-12.38-14.86-19.57-4.16-7.46-3.55-15.06.43-22.4,2.16-3.98,4.63-7.81,7.08-11.62.82-1.28.9-2.15-.19-3.29-4.17-4.36-6.69-9.77-8.77-15.29C2.91,288.27-.15,274.21,0,259.53c.25-23.48,5.41-45.87,14.77-67.32,5.62-12.88,12.03-25.38,18.94-37.62,3.33-5.88,6.53-11.84,9.87-17.71,1.84-3.24,2.6-6.57,2.12-10.32-.65-5.15-1.47-10.25-2.9-15.24-2.41-8.41-7.69-14.94-13.89-20.84-4.59-4.37-9.3-8.65-14.14-12.7-6.38-5.34-7.43-16.35-4.43-22.74,2.65-5.65,6.41-10.41,11.05-14.51,14.86-13.12,31.99-15.41,50.41-9.97,13.17,3.89,23.43,11.9,30.42,23.88,1.59,2.73,3.26,5.41,4.95,8.23l.03-.02ZM24.15,359.71c0,.41.22.66.6.77.83.96,1.58,1.98,2.49,2.86,15.93,15.34,34.4,25.95,56.29,30.17.28.14.55.35.84.41,9.77,1.84,19.6,3.2,29.55,3.25,14,.08,27.81-1.66,41.37-5.16,7.8-2.01,15.31-4.74,22.06-9.34,4.98-3.39,8.57-7.82,10.53-13.49,1-2.89,1.98-5.92,1.35-8.98-.93-4.46-2.7-8.67-4.91-12.66-1.15-2.07-1.32-2.08-3.42-.93-4.38,2.39-9.01,4.14-13.83,5.38-1.24.32-2.5.47-3.76.18-1.62-.37-1.91-1.18-.81-2.42,1.77-1.99,3.93-3.52,6.17-4.93,10.94-6.86,20.12-15.71,28.73-25.21,2.21-2.44,3.98-5.18,5.65-8.01,2.53-4.3,4.4-8.9,6.42-13.42,7.47-16.76,12.53-34.07,11.67-52.68-.42-9.05-2.74-17.25-9.82-23.55-6.1-5.43-12.79-7.56-20.71-4.44-4.15,1.64-8.14,3.56-11.77,6.13-2.44,1.73-5,3.43-6.46,6.23l.04-.02c-.72-.22-.97.26-1.2.78-1.2,1.17-2.39,2.35-3.6,3.52-.31.3-.7.49-1.14.33-.63-.23-.66-.79-.56-1.31.33-1.68,1.23-3.12,2.09-4.56,2.32-3.9,5.33-7.28,8.25-10.73,4.18-3.71,8.39-7.37,13.67-9.48,1.01-.4,1.18-1.07.9-2.01-.57-1.93-1.33-3.76-2.48-5.44-4-5.83-9.18-9.95-15.92-12.39-5.8-2.1-10.89-1.02-15.87,2.07l.06-.02c-.64-.14-1.13.07-1.45.65-5.04,2.19-9.84,4.81-14.17,8.24-4.55,3.61-9,7.32-13.09,11.46-1.26,1.28-2.55,2.52-3.83,3.78-.37.37-.79.83-1.33.4-.47-.37-.37-.93-.15-1.45,1.32-3.01,3-5.8,5.01-8.4,4.91-6.39,10.46-12.14,16.83-17.09.88-.21,1.61-.61,1.95-1.51l-.07.04c.58.07.99-.28,1.43-.56,5.7-3.72,11.76-6.59,18.57-7.53,1.35-.18,1.75-.89,1.93-2.04.68-4.36.28-8.59-1.39-12.7-3.49-8.59-10.19-14.01-18.03-18.26-2.14-1.16-4.6-1.45-7.06-1.43-.98,0-1.88.12-2.62.85-2.17,2.13-4.79,3.77-6.71,6.18-2.7,1.72-4.83,4.09-7.11,6.28-13.02,12.54-25.12,25.97-37.51,39.12-2.03,2.15-4.08,4.29-6.16,6.39-.48.48-1,1.38-1.81.91-.96-.56-.13-1.33.13-1.91,2.83-6.27,6.26-12.16,10.26-17.79,15.82-22.27,34.64-41.81,54.79-60.08,14.59-13.22,28.4-27.17,41.83-41.52,3.25-3.47,6.35-7.09,9.13-10.95,6.67-9.25,11.08-19.45,12.17-30.88.77-8.12-.85-15.78-5.32-22.71-2.32-3.59-5.45-6.18-9.65-7.25-3.09-.79-6.24-1.06-9.43-.65-7.73.99-14.73,3.85-20.75,8.76-10.57,8.62-20.64,17.76-29.22,28.48-13.53,16.92-27.43,33.54-42.35,49.26-18.59,19.6-33.52,41.84-47.31,64.92-10.21,17.08-18.38,35.18-26.01,53.52-2.55,6.14-4.37,12.61-5.51,19.13-2.71,15.55-2.19,31.13.59,46.66,2.82,15.79,10.04,29.29,21.21,40.67,6.14,6.26,12.7,12.09,19.94,17.11,0,.53.26.83.8.87l-.02-.03c.03.21,0,.44.09.61.48.97,1.04,1.98,0,2.87-.86.74-1.8.21-2.69-.1-.2-.07-.41-.13-.6-.21-7.28-3.4-14.42-7.04-20.73-12.11-1.94-1.56-3.85-3.14-5.92-4.83-1.41,2.33-2.71,4.37-3.91,6.47-.95,1.65-1.88,3.31-2.65,5.04-3.19,7.15-2.44,15.64,4.71,21.33l-.02-.03c-.16.69.26,1.01.81,1.25l-.09-.11.02-.02ZM67.68,40.28c-.87-.36-1.72-.83-2.63-1.07-6.62-1.7-13.36-2.1-20.09-1.19-11.74,1.59-19.82,8.33-24.8,18.84-3.16,6.67-1.58,12.57,4.15,17.19,1.31,1.06,2.71,2.01,4.08,2.99,6.39,4.57,11.91,10.08,16.9,16.1,3.81,4.6,6.38,9.89,8.1,15.61.54,1.81.79,3.71,1.73,5.39.53,3.06,1.06,6.12,1.6,9.28,1.48-.42,2.08-1.48,2.85-2.28,11.48-11.83,21.8-24.69,32.69-37.04,2.23-2.53,4.26-5.24,6.21-8.01.81-1.14.97-2.18.64-3.53-2.11-8.77-6.35-16.37-12.9-22.48-5.23-4.87-11.58-8.01-18.54-9.82v.02Z"/><path class="cls-1" d="M54.37,338.69c-7.23-5.02-13.79-10.85-19.94-17.11-11.17-11.38-18.39-24.88-21.21-40.67-2.78-15.53-3.3-31.11-.59-46.66,1.14-6.52,2.96-13,5.51-19.13,7.62-18.34,15.79-36.44,26.01-53.52,13.8-23.07,28.73-45.31,47.31-64.92,14.91-15.73,28.82-32.35,42.35-49.26,8.58-10.73,18.64-19.86,29.22-28.48,6.02-4.91,13.02-7.77,20.75-8.76,3.19-.41,6.34-.14,9.43.65,4.2,1.07,7.33,3.66,9.65,7.25,4.47,6.93,6.1,14.59,5.32,22.71-1.09,11.43-5.5,21.62-12.17,30.88-2.78,3.86-5.88,7.48-9.13,10.95-13.43,14.35-27.24,28.31-41.83,41.52-20.16,18.26-38.97,37.81-54.79,60.08-4,5.63-7.43,11.52-10.26,17.79-.26.58-1.09,1.36-.13,1.91.81.47,1.33-.42,1.81-.91,2.08-2.1,4.13-4.24,6.16-6.39,12.39-13.15,24.49-26.58,37.51-39.12,2.28-2.19,4.41-4.56,7.11-6.28.51-.09,1.04-.12,1.53-.29,7.14-2.4,16.08,2.19,18.96,7.34.94,1.69,1.59,3.38,1.81,5.3.91,7.79-1.55,14.47-6.46,20.42-.7.85-1.85,1.43-1.96,2.72l.07-.04c-1.07-.03-1.47.8-1.95,1.51-6.37,4.95-11.92,10.7-16.83,17.09-2,2.6-3.69,5.39-5.01,8.4-.23.51-.32,1.08.15,1.45.54.43.95-.03,1.33-.4,1.28-1.26,2.57-2.5,3.83-3.78,4.09-4.14,8.54-7.85,13.09-11.46,4.33-3.43,9.12-6.04,14.17-8.24.59,0,1.19.07,1.45-.65l-.06.02c2.8-.04,5.68-.82,8.35.54,6.53,3.33,10.95,8.32,12.08,15.8.56,3.69.03,7.31-.75,10.91-2.92,3.45-5.92,6.83-8.25,10.73-.86,1.44-1.76,2.88-2.09,4.56-.1.52-.07,1.08.56,1.31.44.16.83-.03,1.14-.33,1.21-1.17,2.4-2.34,3.6-3.52.53-.06,1.05-.15,1.2-.78l-.04.02c2.12-.59,4.22-1.26,6.37-1.75,7.59-1.74,13.98.3,18.96,6.34,4.4,5.34,7.09,11.6,8.3,18.28,2.13,11.7.62,23.14-3.97,34.13-3.41,8.18-8.52,15.33-14.09,22.1-6.38,7.75-13.19,15.1-21.58,20.83-5.15,3.52-9.91,7.55-14.34,11.96-2.57,2.56-4.68,5.45-5.88,8.91-1.73,5-.27,9.17,4.17,12.05,1.6,1.04,3.34,1.79,5.12,2.47,2.16.83,2.38,1.4,1.47,3.54-.29.67-.7,1.3-1.09,1.93-2.64,4.2-6.3,7.34-10.41,10.03-4.64,3.03-9.82,4.87-14.92,6.87-12.67,4.97-25.85,6.9-39.4,6.5-2.53-.07-5.04-.36-7.57-.55-21.89-4.22-40.36-14.83-56.29-30.17-.91-.87-1.66-1.9-2.49-2.86,0-.41-.15-.71-.6-.77l.09.11c-.02-.58-.04-1.16-.81-1.25l.02.03c.25-.77-.14-1.44-.32-2.14-.76-3-.83-6.04-.39-9.09.27-1.86,1.07-3.43,2.55-4.58,2.25-1.74,4.73-2.67,7.67-1.99,2.07.48,3.99,1.29,5.86,2.28,5.04,2.67,10.17,5.07,15.95,5.7,2.35.26,4.65.08,6.85-.7,1.82-.65,2.31-2.07,1.05-3.06-2.43-1.92-4.48-4.4-7.52-5.5l.02.03c.07-.6-.37-.73-.8-.87v.03ZM59.65,258.16c.11-5.83.29-10.47-.02-15.11-.11-1.7-.37-3.36-1.1-4.91-.98-2.05-2.22-2.49-4.36-1.91-2.36.63-3.79,2.2-4.72,4.31-1.3,2.93-1.81,6.04-2.03,9.21-.87,12.5,1.34,24.58,5.28,36.37,1.57,4.69,3.49,9.28,6.73,13.16.81.97,1.59,1.99,2.69,2.65,2.06,1.23,3.42.48,3.51-1.92.08-2.03-.37-3.99-1-5.89-3.99-12.07-4.66-24.59-5-35.96h.02ZM106.49,292.15c0,3.28.21,6.55.67,9.8.28,1.99.7,3.99,2.08,5.56,1.45,1.65,3.39,1.34,4.33-.63.51-1.08.57-2.25.63-3.41.64-12.3,4.13-23.87,9-35.09,1.18-2.71,2.24-5.47,3.27-8.24.62-1.68,1.07-3.43.98-5.26-.09-1.9-.65-3.6-2.49-4.44-1.88-.86-3.5-.06-4.92,1.2-1.19,1.06-2.08,2.38-2.99,3.68-7.79,11.05-10.67,23.51-10.57,36.83h0Z"/><path class="cls-3" d="M83.53,393.51c2.52.19,5.04.47,7.57.55,13.55.39,26.73-1.54,39.4-6.5,5.11-2,10.28-3.84,14.92-6.87,4.11-2.69,7.77-5.82,10.41-10.03.39-.62.8-1.25,1.09-1.93.91-2.14.69-2.71-1.47-3.54-1.78-.69-3.52-1.44-5.12-2.47-4.45-2.88-5.9-7.05-4.17-12.05,1.2-3.46,3.31-6.35,5.88-8.91,4.43-4.41,9.18-8.44,14.34-11.96,8.39-5.73,15.21-13.08,21.58-20.83,5.57-6.77,10.68-13.92,14.09-22.1,4.58-10.99,6.09-22.43,3.97-34.13-1.21-6.68-3.9-12.94-8.3-18.28-4.98-6.04-11.37-8.08-18.96-6.34-2.14.49-4.25,1.16-6.37,1.75,1.46-2.79,4.02-4.5,6.46-6.23,3.63-2.57,7.63-4.49,11.77-6.13,7.92-3.13,14.61-1,20.71,4.44,7.08,6.3,9.41,14.5,9.82,23.55.86,18.62-4.2,35.92-11.67,52.68-2.02,4.53-3.89,9.13-6.42,13.42-1.67,2.83-3.44,5.57-5.65,8.01-8.62,9.5-17.8,18.35-28.73,25.21-2.24,1.4-4.41,2.94-6.17,4.93-1.1,1.24-.81,2.06.81,2.42,1.26.29,2.52.14,3.76-.18,4.83-1.23,9.45-2.99,13.83-5.38,2.1-1.15,2.27-1.14,3.42.93,2.22,3.99,3.98,8.2,4.91,12.66.64,3.06-.34,6.09-1.35,8.98-1.97,5.67-5.56,10.09-10.53,13.49-6.74,4.6-14.26,7.32-22.06,9.34-13.56,3.5-27.37,5.24-41.37,5.16-9.95-.05-19.79-1.41-29.55-3.25-.3-.06-.56-.27-.84-.41h0Z"/><path class="cls-1" d="M55.13,114.15c-.94-1.68-1.19-3.59-1.73-5.39-1.72-5.72-4.29-11.01-8.1-15.61-4.99-6.02-10.5-11.53-16.9-16.1-1.37-.98-2.77-1.93-4.08-2.99-5.73-4.62-7.31-10.52-4.15-17.19,4.97-10.5,13.05-17.24,24.8-18.84,6.73-.91,13.47-.51,20.09,1.19.91.23,1.75.7,2.63,1.07,4.41,4.34,7.07,9.63,8.6,15.57,1.14,4.43,1.67,8.91,1.45,13.48-.41,8.15-1.86,16.12-4.2,23.94-1.59,5.31-3.81,10.31-7.28,14.65-2.82,3.53-6.12,6.47-11.12,6.24v-.02Z"/><path class="cls-3" d="M55.13,114.15c5,.23,8.3-2.71,11.12-6.24,3.47-4.33,5.69-9.34,7.28-14.65,2.34-7.82,3.79-15.79,4.2-23.94.23-4.56-.31-9.05-1.45-13.48-1.52-5.94-4.19-11.23-8.6-15.57,6.96,1.8,13.31,4.94,18.54,9.82,6.55,6.1,10.8,13.71,12.9,22.48.33,1.36.17,2.39-.64,3.53-1.95,2.76-3.97,5.47-6.21,8.01-10.89,12.35-21.21,25.21-32.69,37.04-.77.8-1.38,1.86-2.85,2.28-.54-3.16-1.07-6.22-1.6-9.28h0Z"/><path class="cls-3" d="M146.33,186.71c.11-1.29,1.26-1.87,1.96-2.72,4.91-5.95,7.37-12.63,6.46-20.42-.22-1.92-.87-3.61-1.81-5.3-2.88-5.15-11.82-9.74-18.96-7.34-.49.16-1.02.2-1.53.29,1.92-2.41,4.54-4.05,6.71-6.18.74-.73,1.64-.84,2.62-.85,2.46,0,4.92.28,7.06,1.43,7.84,4.25,14.54,9.68,18.03,18.26,1.67,4.11,2.08,8.34,1.39,12.7-.18,1.14-.58,1.85-1.93,2.04-6.82.93-12.87,3.8-18.57,7.53-.43.28-.85.63-1.43.56h0Z"/><path class="cls-3" d="M55.15,339.53c3.04,1.09,5.08,3.58,7.52,5.5,1.26,1,.77,2.42-1.05,3.06-2.2.78-4.5.95-6.85.7-5.78-.63-10.92-3.03-15.95-5.7-1.87-.99-3.79-1.8-5.86-2.28-2.93-.68-5.41.24-7.67,1.99-1.48,1.14-2.28,2.72-2.55,4.58-.44,3.06-.37,6.09.39,9.09.18.7.57,1.37.32,2.14-7.15-5.69-7.9-14.18-4.71-21.33.77-1.73,1.71-3.4,2.65-5.04,1.2-2.09,2.5-4.14,3.91-6.47,2.07,1.69,3.99,3.27,5.92,4.83,6.31,5.07,13.45,8.71,20.73,12.11.19.09.4.14.6.21.89.31,1.83.84,2.69.1,1.04-.89.48-1.91,0-2.87-.09-.18-.07-.41-.09-.61h0Z"/><path class="cls-3" d="M176.26,217.87c.78-3.6,1.31-7.22.75-10.91-1.13-7.48-5.55-12.47-12.08-15.8-2.67-1.36-5.55-.58-8.35-.54,4.98-3.08,10.06-4.17,15.87-2.07,6.73,2.44,11.92,6.57,15.92,12.39,1.15,1.68,1.91,3.51,2.48,5.44.28.94.11,1.61-.9,2.01-5.28,2.11-9.5,5.77-13.67,9.48h-.02Z"/><path class="cls-3" d="M144.45,188.18c.49-.72.89-1.55,1.95-1.51-.34.9-1.08,1.3-1.95,1.51Z"/><path class="cls-3" d="M156.63,190.6c-.26.72-.86.66-1.45.65.32-.58.81-.79,1.45-.65Z"/><path class="cls-3" d="M172.42,229.83c-.15.64-.67.73-1.2.78.23-.52.49-1.01,1.2-.78Z"/><path class="cls-3" d="M23.43,358.57c.77.09.78.67.81,1.25-.55-.24-.96-.56-.81-1.25Z"/><path class="cls-3" d="M54.37,338.69c.43.14.87.27.8.87-.54-.04-.79-.34-.8-.87Z"/><path class="cls-3" d="M24.15,359.71c.45.06.59.37.6.77-.39-.11-.6-.36-.6-.77Z"/><path class="cls-2" d="M59.65,258.16c.34,11.37,1.01,23.88,5,35.96.63,1.9,1.08,3.86,1,5.89-.09,2.39-1.45,3.15-3.51,1.92-1.1-.66-1.88-1.67-2.69-2.65-3.24-3.88-5.16-8.47-6.73-13.16-3.94-11.79-6.15-23.86-5.28-36.37.22-3.17.72-6.29,2.03-9.21.94-2.11,2.36-3.68,4.72-4.31,2.14-.57,3.38-.14,4.36,1.91.73,1.54.99,3.21,1.1,4.91.31,4.64.12,9.28.02,15.11h-.02Z"/><path class="cls-2" d="M106.48,292.15c-.1-13.31,2.77-25.77,10.57-36.83.91-1.3,1.8-2.62,2.99-3.68,1.42-1.26,3.04-2.06,4.92-1.2,1.85.84,2.4,2.54,2.49,4.44.09,1.83-.36,3.58-.98,5.26-1.03,2.77-2.1,5.53-3.27,8.24-4.87,11.22-8.36,22.79-9,35.09-.06,1.16-.12,2.33-.63,3.41-.94,1.97-2.88,2.29-4.33.63-1.37-1.57-1.8-3.57-2.08-5.56-.46-3.25-.66-6.52-.67-9.8h0Z"/></g></svg>